<svg width="25" height="25" viewBox="0 0 25 25" fill="none" xmlns="http://www.w3.org/2000/svg">
<path fill-rule="evenodd" clip-rule="evenodd" d="M15.3631 13.1313V24.6536H9.21784V13.1313H15.3631ZM6.14525 17.7402V24.6536H0V17.7402H6.14525ZM24.581 8.52237V24.6537H18.4357V8.52237H24.581ZM13.8268 14.6676H10.7542V23.1173H13.8268V14.6676ZM4.60894 19.2766H1.53632V23.1173H4.60894V19.2766ZM23.0447 10.0587H19.9721V23.1174H23.0447V10.0587ZM20.7402 0.0726318V6.21788H19.2038V2.69512L12.2904 9.60869L8.44966 5.76791L5.15204 9.06552L4.0657 7.97919L8.44966 3.59523L12.2904 7.43602L18.1161 1.60895H14.5949V0.0726318H20.7402Z" fill="#0AD9C6"/>
</svg>
